<svg xmlns="http://www.w3.org/2000/svg" xmlns:xlink="http://www.w3.org/1999/xlink" xmlns:lucid="lucid" width="1101" height="305.44"><g transform="translate(530.5 -399.5)" lucid:page-tab-id="0_0"><path d="M-1000 0h2000v1000h-2000z" fill="#fff"/><path d="M-240 448a8 8 0 0 1 8-8h194a8 8 0 0 1 8 8v120a8 8 0 0 1-8 8h-194a8 8 0 0 1-8-8z" fill="#fff"/><path d="M-240 480v-32a8 8 0 0 1 8-8h194a8 8 0 0 1 8 8v32" fill="#ced4db"/><path d="M-240 448a8 8 0 0 1 8-8h194a8 8 0 0 1 8 8v120a8 8 0 0 1-8 8h-194a8 8 0 0 1-8-8zM-240 480h210M-180 480v96" stroke="#3a414a" fill="none"/><use xlink:href="#a" transform="matrix(1,0,0,1,-230,440) translate(27.549999999999997 23.6)"/><use xlink:href="#b" transform="matrix(1,0,0,1,-235,482.5) translate(13.524999999999999 17.1)"/><use xlink:href="#c" transform="matrix(1,0,0,1,-175,482.5) translate(16.099999999999994 17.1)"/><use xlink:href="#b" transform="matrix(1,0,0,1,-235,514.5) translate(13.524999999999999 17.1)"/><use xlink:href="#d" transform="matrix(1,0,0,1,-175,514.5) translate(9.649999999999999 17.1)"/><use xlink:href="#b" transform="matrix(1,0,0,1,-235,546.5) translate(13.524999999999999 17.1)"/><use xlink:href="#e" transform="matrix(1,0,0,1,-175,546.5) translate(21.549999999999997 17.1)"/><path d="M-510 428a8 8 0 0 1 8-8h144a8 8 0 0 1 8 8v184a8 8 0 0 1-8 8h-144a8 8 0 0 1-8-8z" fill="#fff"/><path d="M-510 460v-32a8 8 0 0 1 8-8h144a8 8 0 0 1 8 8v32" fill="#fcfcca"/><path d="M-510 428a8 8 0 0 1 8-8h144a8 8 0 0 1 8 8v184a8 8 0 0 1-8 8h-144a8 8 0 0 1-8-8zM-510 460h160M-458 460v160" stroke="#3a414a" fill="none"/><use xlink:href="#f" transform="matrix(1,0,0,1,-500,420) translate(51.025 23.6)"/><use xlink:href="#g" transform="matrix(1,0,0,1,-453,462.5) translate(26.525 17.1)"/><use xlink:href="#h" transform="matrix(1,0,0,1,-505,494.5) translate(9 17.1)"/><use xlink:href="#i" transform="matrix(1,0,0,1,-453,494.5) translate(27.574999999999996 17.1)"/><use xlink:href="#j" transform="matrix(1,0,0,1,-453,526.5) translate(29.5 17.1)"/><use xlink:href="#k" transform="matrix(1,0,0,1,-453,558.5) translate(15.024999999999999 17.1)"/><use xlink:href="#l" transform="matrix(1,0,0,1,-453,590.5) translate(20.049999999999997 17.1)"/><path d="M80 428.44a8 8 0 0 1 8-8h164a8 8 0 0 1 8 8v248a8 8 0 0 1-8 8H88a8 8 0 0 1-8-8z" fill="#fff"/><path d="M80 460.44v-32a8 8 0 0 1 8-8h164a8 8 0 0 1 8 8v32" fill="#fcfcca"/><path d="M80 428.44a8 8 0 0 1 8-8h164a8 8 0 0 1 8 8v248a8 8 0 0 1-8 8H88a8 8 0 0 1-8-8zM80 460.44h180M132 460.44v224" stroke="#3a414a" fill="none"/><use xlink:href="#m" transform="matrix(1,0,0,1,90,420.4443737749773) translate(8.074999999999989 23.6)"/><use xlink:href="#h" transform="matrix(1,0,0,1,85,462.9443737749773) translate(9 17.1)"/><use xlink:href="#n" transform="matrix(1,0,0,1,137,462.9443737749773) translate(52.025 17.1)"/><use xlink:href="#o" transform="matrix(1,0,0,1,137,494.9443737749773) translate(30.525 17.1)"/><use xlink:href="#p" transform="matrix(1,0,0,1,137,526.9443737749773) translate(29.5 17.1)"/><use xlink:href="#q" transform="matrix(1,0,0,1,137,558.9443737749773) translate(41.5 17.1)"/><use xlink:href="#r" transform="matrix(1,0,0,1,137,590.9443737749773) translate(42.05 17.1)"/><use xlink:href="#s" transform="matrix(1,0,0,1,137,622.9443737749773) translate(35 17.1)"/><use xlink:href="#t" transform="matrix(1,0,0,1,137,654.9443737749773) translate(42 17.1)"/><path d="M59.5 476.02H37a12 12 0 0 0-12 12v60.23a12 12 0 0 1-12 12H-9.5M79.5 476.02h-20m0-10v20M-29.5 560.25h20m0 10v-20" stroke="#3a414a" fill="none"/><path d="M370 428a8 8 0 0 1 8-8h164a8 8 0 0 1 8 8v88a8 8 0 0 1-8 8H378a8 8 0 0 1-8-8z" fill="#fff"/><path d="M370 460v-32a8 8 0 0 1 8-8h164a8 8 0 0 1 8 8v32" fill="#ced4db"/><path d="M370 428a8 8 0 0 1 8-8h164a8 8 0 0 1 8 8v88a8 8 0 0 1-8 8H378a8 8 0 0 1-8-8zM370 460h180M430 460v64" stroke="#3a414a" fill="none"/><use xlink:href="#u" transform="matrix(1,0,0,1,380,420) translate(35.074999999999996 23.6)"/><use xlink:href="#b" transform="matrix(1,0,0,1,375,462.5) translate(13.524999999999999 17.1)"/><use xlink:href="#v" transform="matrix(1,0,0,1,435,462.5) translate(17.549999999999997 17.1)"/><use xlink:href="#b" transform="matrix(1,0,0,1,375,494.5) translate(13.524999999999999 17.1)"/><use xlink:href="#w" transform="matrix(1,0,0,1,435,494.5) translate(6.049999999999997 17.1)"/><path d="M280.5 476.02h69.6M260.5 476.02h20m0 10v-20M369.28 476.02h-20m20-10l-20 10m20 10l-20-10M280.5 476.02H303a12 12 0 0 1 12 12v8.18a12 12 0 0 0 12 12h23.1M260.5 476.02h20m-10 10v-20m10 20v-20M369.28 508.2h-20m20-10l-20 10m20 10l-20-10M-329.5 507.93h28.5a6 6 0 0 0 6-6 6 6 0 0 1 6-6h29.1M-349.5 507.93h20m0 10v-20M-240.72 495.94h-20m20-10l-20 10m20 10l-20-10M-329.5 507.93h24.42A10.1 10.1 0 0 1-295 518a10.1 10.1 0 0 0 10.08 10.1h25M-349.5 507.93h20m-10 10v-20m10 20v-20M-240.72 528.1h-20m20-10l-20 10m20 10l-20-10" stroke="#3a414a" fill="none"/><defs><path fill="#3a414a" d="M85 4C-2 5 27-109 22-190h50c7 57-23 150 33 157 60-5 35-97 40-157h50l1 190h-47c-2-12 1-28-3-38-12 25-28 42-61 42" id="x"/><path fill="#3a414a" d="M137-138c1-29-70-34-71-4 15 46 118 7 119 86 1 83-164 76-172 9l43-7c4 19 20 25 44 25 33 8 57-30 24-41C81-84 22-81 20-136c-2-80 154-74 161-7" id="y"/><path fill="#3a414a" d="M185-48c-13 30-37 53-82 52C43 2 14-33 14-96s30-98 90-98c62 0 83 45 84 108H66c0 31 8 55 39 56 18 0 30-7 34-22zm-45-69c5-46-57-63-70-21-2 6-4 13-4 21h74" id="z"/><path fill="#3a414a" d="M135-150c-39-12-60 13-60 57V0H25l-1-190h47c2 13-1 29 3 40 6-28 27-53 61-41v41" id="A"/><path fill="#3a414a" d="M-4 44V30h207v14H-4" id="B"/><path fill="#3a414a" d="M220-157c-53 9-28 100-34 157h-49v-107c1-27-5-49-29-50C55-147 81-57 75 0H25l-1-190h47c2 12-1 28 3 38 10-53 101-56 108 0 13-22 24-43 59-42 82 1 51 116 57 194h-49v-107c-1-25-5-48-29-50" id="C"/><path fill="#3a414a" d="M133-34C117-15 103 5 69 4 32 3 11-16 11-54c-1-60 55-63 116-61 1-26-3-47-28-47-18 1-26 9-28 27l-52-2c7-38 36-58 82-57s74 22 75 68l1 82c-1 14 12 18 25 15v27c-30 8-71 5-69-32zm-48 3c29 0 43-24 42-57-32 0-66-3-65 30 0 17 8 27 23 27" id="D"/><path fill="#3a414a" d="M195-6C206 82 75 100 31 46c-4-6-6-13-8-21l49-6c3 16 16 24 34 25 40 0 42-37 40-79-11 22-30 35-61 35-53 0-70-43-70-97 0-56 18-96 73-97 30 0 46 14 59 34l2-30h47zm-90-29c32 0 41-27 41-63 0-35-9-62-40-62-32 0-39 29-40 63 0 36 9 62 39 62" id="E"/><g id="a"><use transform="matrix(0.05,0,0,0.05,0,0)" xlink:href="#x"/><use transform="matrix(0.05,0,0,0.05,10.950000000000001,0)" xlink:href="#y"/><use transform="matrix(0.05,0,0,0.05,20.950000000000003,0)" xlink:href="#z"/><use transform="matrix(0.05,0,0,0.05,30.950000000000003,0)" xlink:href="#A"/><use transform="matrix(0.05,0,0,0.05,37.95,0)" xlink:href="#B"/><use transform="matrix(0.05,0,0,0.05,47.95,0)" xlink:href="#C"/><use transform="matrix(0.05,0,0,0.05,63.95,0)" xlink:href="#z"/><use transform="matrix(0.05,0,0,0.05,73.95,0)" xlink:href="#y"/><use transform="matrix(0.05,0,0,0.05,83.95,0)" xlink:href="#y"/><use transform="matrix(0.05,0,0,0.05,93.95,0)" xlink:href="#D"/><use transform="matrix(0.05,0,0,0.05,103.95,0)" xlink:href="#E"/><use transform="matrix(0.05,0,0,0.05,114.9,0)" xlink:href="#z"/><use transform="matrix(0.05,0,0,0.05,124.9,0)" xlink:href="#y"/></g><path fill="#3a414a" d="M63-220v92h138v28H63V0H30v-248h175v28H63" id="F"/><path fill="#3a414a" d="M194 0L95-120 63-95V0H30v-248h33v124l119-124h40L117-140 236 0h-42" id="G"/><g id="b"><use transform="matrix(0.05,0,0,0.05,0,0)" xlink:href="#F"/><use transform="matrix(0.05,0,0,0.05,10.950000000000001,0)" xlink:href="#G"/></g><path fill="#3a414a" d="M135-143c-3-34-86-38-87 0 15 53 115 12 119 90S17 21 10-45l28-5c4 36 97 45 98 0-10-56-113-15-118-90-4-57 82-63 122-42 12 7 21 19 24 35" id="H"/><path fill="#3a414a" d="M100-194c63 0 86 42 84 106H49c0 40 14 67 53 68 26 1 43-12 49-29l28 8c-11 28-37 45-77 45C44 4 14-33 15-96c1-61 26-98 85-98zm52 81c6-60-76-77-97-28-3 7-6 17-6 28h103" id="I"/><path fill="#3a414a" d="M117-194c89-4 53 116 60 194h-32v-121c0-31-8-49-39-48C34-167 62-67 57 0H25l-1-190h30c1 10-1 24 2 32 11-22 29-35 61-36" id="J"/><path fill="#3a414a" d="M85-194c31 0 48 13 60 33l-1-100h32l1 261h-30c-2-10 0-23-3-31C134-8 116 4 85 4 32 4 16-35 15-94c0-66 23-100 70-100zm9 24c-40 0-46 34-46 75 0 40 6 74 45 74 42 0 51-32 51-76 0-42-9-74-50-73" id="K"/><path fill="#3a414a" d="M114-163C36-179 61-72 57 0H25l-1-190h30c1 12-1 29 2 39 6-27 23-49 58-41v29" id="L"/><path fill="#3a414a" d="M-5 72V49h209v23H-5" id="M"/><path fill="#3a414a" d="M210-169c-67 3-38 105-44 169h-31v-121c0-29-5-50-35-48C34-165 62-65 56 0H25l-1-190h30c1 10-1 24 2 32 10-44 99-50 107 0 11-21 27-35 58-36 85-2 47 119 55 194h-31v-121c0-29-5-49-35-48" id="N"/><path fill="#3a414a" d="M141-36C126-15 110 5 73 4 37 3 15-17 15-53c-1-64 63-63 125-63 3-35-9-54-41-54-24 1-41 7-42 31l-33-3c5-37 33-52 76-52 45 0 72 20 72 64v82c-1 20 7 32 28 27v20c-31 9-61-2-59-35zM48-53c0 20 12 33 32 33 41-3 63-29 60-74-43 2-92-5-92 41" id="O"/><path fill="#3a414a" d="M24-231v-30h32v30H24zM24 0v-190h32V0H24" id="P"/><path fill="#3a414a" d="M24 0v-261h32V0H24" id="Q"/><g id="c"><use transform="matrix(0.05,0,0,0.05,0,0)" xlink:href="#H"/><use transform="matrix(0.05,0,0,0.05,9,0)" xlink:href="#I"/><use transform="matrix(0.05,0,0,0.05,19,0)" xlink:href="#J"/><use transform="matrix(0.05,0,0,0.05,29,0)" xlink:href="#K"/><use transform="matrix(0.05,0,0,0.05,39,0)" xlink:href="#I"/><use transform="matrix(0.05,0,0,0.05,49,0)" xlink:href="#L"/><use transform="matrix(0.05,0,0,0.05,54.95,0)" xlink:href="#M"/><use transform="matrix(0.05,0,0,0.05,64.95,0)" xlink:href="#I"/><use transform="matrix(0.05,0,0,0.05,74.95,0)" xlink:href="#N"/><use transform="matrix(0.05,0,0,0.05,89.9,0)" xlink:href="#O"/><use transform="matrix(0.05,0,0,0.05,99.9,0)" xlink:href="#P"/><use transform="matrix(0.05,0,0,0.05,103.85000000000001,0)" xlink:href="#Q"/></g><path fill="#3a414a" d="M96-169c-40 0-48 33-48 73s9 75 48 75c24 0 41-14 43-38l32 2c-6 37-31 61-74 61-59 0-76-41-82-99-10-93 101-131 147-64 4 7 5 14 7 22l-32 3c-4-21-16-35-41-35" id="R"/><path fill="#3a414a" d="M115-194c55 1 70 41 70 98S169 2 115 4C84 4 66-9 55-30l1 105H24l-1-265h31l2 30c10-21 28-34 59-34zm-8 174c40 0 45-34 45-75s-6-73-45-74c-42 0-51 32-51 76 0 43 10 73 51 73" id="S"/><path fill="#3a414a" d="M59-47c-2 24 18 29 38 22v24C64 9 27 4 27-40v-127H5v-23h24l9-43h21v43h35v23H59v120" id="T"/><g id="d"><use transform="matrix(0.05,0,0,0.05,0,0)" xlink:href="#L"/><use transform="matrix(0.05,0,0,0.05,5.95,0)" xlink:href="#I"/><use transform="matrix(0.05,0,0,0.05,15.949999999999998,0)" xlink:href="#R"/><use transform="matrix(0.05,0,0,0.05,24.95,0)" xlink:href="#P"/><use transform="matrix(0.05,0,0,0.05,28.899999999999995,0)" xlink:href="#S"/><use transform="matrix(0.05,0,0,0.05,38.9,0)" xlink:href="#P"/><use transform="matrix(0.05,0,0,0.05,42.85,0)" xlink:href="#I"/><use transform="matrix(0.05,0,0,0.05,52.85,0)" xlink:href="#J"/><use transform="matrix(0.05,0,0,0.05,62.85,0)" xlink:href="#T"/><use transform="matrix(0.05,0,0,0.05,67.85,0)" xlink:href="#M"/><use transform="matrix(0.05,0,0,0.05,77.85,0)" xlink:href="#I"/><use transform="matrix(0.05,0,0,0.05,87.85,0)" xlink:href="#N"/><use transform="matrix(0.05,0,0,0.05,102.80000000000001,0)" xlink:href="#O"/><use transform="matrix(0.05,0,0,0.05,112.80000000000001,0)" xlink:href="#P"/><use transform="matrix(0.05,0,0,0.05,116.75,0)" xlink:href="#Q"/></g><path fill="#3a414a" d="M177-190C167-65 218 103 67 71c-23-6-38-20-44-43l32-5c15 47 100 32 89-28v-30C133-14 115 1 83 1 29 1 15-40 15-95c0-56 16-97 71-98 29-1 48 16 59 35 1-10 0-23 2-32h30zM94-22c36 0 50-32 50-73 0-42-14-75-50-75-39 0-46 34-46 75s6 73 46 73" id="U"/><g id="e"><use transform="matrix(0.05,0,0,0.05,0,0)" xlink:href="#N"/><use transform="matrix(0.05,0,0,0.05,14.950000000000001,0)" xlink:href="#I"/><use transform="matrix(0.05,0,0,0.05,24.950000000000003,0)" xlink:href="#H"/><use transform="matrix(0.05,0,0,0.05,33.95,0)" xlink:href="#H"/><use transform="matrix(0.05,0,0,0.05,42.95,0)" xlink:href="#O"/><use transform="matrix(0.05,0,0,0.05,52.95,0)" xlink:href="#U"/><use transform="matrix(0.05,0,0,0.05,62.95,0)" xlink:href="#I"/><use transform="matrix(0.05,0,0,0.05,72.95,0)" xlink:href="#M"/><use transform="matrix(0.05,0,0,0.05,82.95,0)" xlink:href="#P"/><use transform="matrix(0.05,0,0,0.05,86.9,0)" xlink:href="#K"/></g><g id="f"><use transform="matrix(0.05,0,0,0.05,0,0)" xlink:href="#x"/><use transform="matrix(0.05,0,0,0.05,10.950000000000001,0)" xlink:href="#y"/><use transform="matrix(0.05,0,0,0.05,20.950000000000003,0)" xlink:href="#z"/><use transform="matrix(0.05,0,0,0.05,30.950000000000003,0)" xlink:href="#A"/></g><g id="g"><use transform="matrix(0.05,0,0,0.05,0,0)" xlink:href="#J"/><use transform="matrix(0.05,0,0,0.05,10,0)" xlink:href="#O"/><use transform="matrix(0.05,0,0,0.05,20,0)" xlink:href="#N"/><use transform="matrix(0.05,0,0,0.05,34.95,0)" xlink:href="#I"/></g><path fill="#3a414a" d="M30-248c87 1 191-15 191 75 0 78-77 80-158 76V0H30v-248zm33 125c57 0 124 11 124-50 0-59-68-47-124-48v98" id="V"/><g id="h"><use transform="matrix(0.05,0,0,0.05,0,0)" xlink:href="#V"/><use transform="matrix(0.05,0,0,0.05,12,0)" xlink:href="#G"/></g><g id="i"><use transform="matrix(0.05,0,0,0.05,0,0)" xlink:href="#I"/><use transform="matrix(0.05,0,0,0.05,10,0)" xlink:href="#N"/><use transform="matrix(0.05,0,0,0.05,24.950000000000003,0)" xlink:href="#O"/><use transform="matrix(0.05,0,0,0.05,34.95,0)" xlink:href="#P"/><use transform="matrix(0.05,0,0,0.05,38.900000000000006,0)" xlink:href="#Q"/></g><path fill="#3a414a" d="M106-169C34-169 62-67 57 0H25v-261h32l-1 103c12-21 28-36 61-36 89 0 53 116 60 194h-32v-121c2-32-8-49-39-48" id="W"/><g id="j"><use transform="matrix(0.05,0,0,0.05,0,0)" xlink:href="#W"/><use transform="matrix(0.05,0,0,0.05,10,0)" xlink:href="#O"/><use transform="matrix(0.05,0,0,0.05,20,0)" xlink:href="#H"/><use transform="matrix(0.05,0,0,0.05,29,0)" xlink:href="#W"/></g><path fill="#3a414a" d="M145-31C134-9 116 4 85 4 32 4 16-35 15-94c0-59 17-99 70-100 32-1 48 14 60 33 0-11-1-24 2-32h30l-1 268h-32zM93-21c41 0 51-33 51-76s-8-73-50-73c-40 0-46 35-46 75s5 74 45 74" id="X"/><path fill="#3a414a" d="M84 4C-5 8 30-112 23-190h32v120c0 31 7 50 39 49 72-2 45-101 50-169h31l1 190h-30c-1-10 1-25-2-33-11 22-28 36-60 37" id="Y"/><path fill="#3a414a" d="M100-194c62-1 85 37 85 99 1 63-27 99-86 99S16-35 15-95c0-66 28-99 85-99zM99-20c44 1 53-31 53-75 0-43-8-75-51-75s-53 32-53 75 10 74 51 75" id="Z"/><g id="k"><use transform="matrix(0.05,0,0,0.05,0,0)" xlink:href="#X"/><use transform="matrix(0.05,0,0,0.05,10,0)" xlink:href="#Y"/><use transform="matrix(0.05,0,0,0.05,20,0)" xlink:href="#I"/><use transform="matrix(0.05,0,0,0.05,30,0)" xlink:href="#H"/><use transform="matrix(0.05,0,0,0.05,39,0)" xlink:href="#T"/><use transform="matrix(0.05,0,0,0.05,44,0)" xlink:href="#P"/><use transform="matrix(0.05,0,0,0.05,47.95,0)" xlink:href="#Z"/><use transform="matrix(0.05,0,0,0.05,57.95,0)" xlink:href="#J"/></g><path fill="#3a414a" d="M206 0h-36l-40-164L89 0H53L-1-190h32L70-26l43-164h34l41 164 42-164h31" id="aa"/><g id="l"><use transform="matrix(0.05,0,0,0.05,0,0)" xlink:href="#O"/><use transform="matrix(0.05,0,0,0.05,10,0)" xlink:href="#J"/><use transform="matrix(0.05,0,0,0.05,20,0)" xlink:href="#H"/><use transform="matrix(0.05,0,0,0.05,29,0)" xlink:href="#aa"/><use transform="matrix(0.05,0,0,0.05,41.95,0)" xlink:href="#I"/><use transform="matrix(0.05,0,0,0.05,51.95,0)" xlink:href="#L"/></g><path fill="#3a414a" d="M88-194c31-1 46 15 58 34l-1-101h50l1 261h-48c-2-10 0-23-3-31C134-8 116 4 84 4 32 4 16-41 15-95c0-56 19-97 73-99zm17 164c33 0 40-30 41-66 1-37-9-64-41-64s-38 30-39 65c0 43 13 65 39 65" id="ab"/><path fill="#3a414a" d="M115-3C79 11 28 4 28-45v-112H4v-33h27l15-45h31v45h36v33H77v99c-1 23 16 31 38 25v30" id="ac"/><path fill="#3a414a" d="M25-224v-37h50v37H25zM25 0v-190h50V0H25" id="ad"/><path fill="#3a414a" d="M25 0v-261h50V0H25" id="ae"/><g id="m"><use transform="matrix(0.05,0,0,0.05,0,0)" xlink:href="#C"/><use transform="matrix(0.05,0,0,0.05,16,0)" xlink:href="#z"/><use transform="matrix(0.05,0,0,0.05,26,0)" xlink:href="#y"/><use transform="matrix(0.05,0,0,0.05,36,0)" xlink:href="#y"/><use transform="matrix(0.05,0,0,0.05,46,0)" xlink:href="#D"/><use transform="matrix(0.05,0,0,0.05,56,0)" xlink:href="#E"/><use transform="matrix(0.05,0,0,0.05,66.95,0)" xlink:href="#z"/><use transform="matrix(0.05,0,0,0.05,76.95,0)" xlink:href="#B"/><use transform="matrix(0.05,0,0,0.05,86.95,0)" xlink:href="#ab"/><use transform="matrix(0.05,0,0,0.05,97.9,0)" xlink:href="#z"/><use transform="matrix(0.05,0,0,0.05,107.9,0)" xlink:href="#ac"/><use transform="matrix(0.05,0,0,0.05,113.85000000000001,0)" xlink:href="#D"/><use transform="matrix(0.05,0,0,0.05,123.85000000000001,0)" xlink:href="#ad"/><use transform="matrix(0.05,0,0,0.05,128.85000000000002,0)" xlink:href="#ae"/><use transform="matrix(0.05,0,0,0.05,133.85000000000002,0)" xlink:href="#y"/></g><g id="n"><use transform="matrix(0.05,0,0,0.05,0,0)" xlink:href="#P"/><use transform="matrix(0.05,0,0,0.05,3.95,0)" xlink:href="#K"/></g><path fill="#3a414a" d="M115-194c53 0 69 39 70 98 0 66-23 100-70 100C84 3 66-7 56-30L54 0H23l1-261h32v101c10-23 28-34 59-34zm-8 174c40 0 45-34 45-75 0-40-5-75-45-74-42 0-51 32-51 76 0 43 10 73 51 73" id="af"/><path fill="#3a414a" d="M24-231v-30h32v30H24zM-9 49c24 4 33-6 33-30v-209h32V24c2 40-23 58-65 49V49" id="ag"/><g id="o"><use transform="matrix(0.05,0,0,0.05,0,0)" xlink:href="#H"/><use transform="matrix(0.05,0,0,0.05,9,0)" xlink:href="#Y"/><use transform="matrix(0.05,0,0,0.05,19,0)" xlink:href="#af"/><use transform="matrix(0.05,0,0,0.05,29,0)" xlink:href="#ag"/><use transform="matrix(0.05,0,0,0.05,32.95,0)" xlink:href="#I"/><use transform="matrix(0.05,0,0,0.05,42.95,0)" xlink:href="#R"/><use transform="matrix(0.05,0,0,0.05,51.95,0)" xlink:href="#T"/></g><g id="p"><use transform="matrix(0.05,0,0,0.05,0,0)" xlink:href="#R"/><use transform="matrix(0.05,0,0,0.05,9,0)" xlink:href="#Z"/><use transform="matrix(0.05,0,0,0.05,19,0)" xlink:href="#J"/><use transform="matrix(0.05,0,0,0.05,29,0)" xlink:href="#T"/><use transform="matrix(0.05,0,0,0.05,34,0)" xlink:href="#I"/><use transform="matrix(0.05,0,0,0.05,44,0)" xlink:href="#J"/><use transform="matrix(0.05,0,0,0.05,54,0)" xlink:href="#T"/></g><g id="q"><use transform="matrix(0.05,0,0,0.05,0,0)" xlink:href="#K"/><use transform="matrix(0.05,0,0,0.05,10,0)" xlink:href="#O"/><use transform="matrix(0.05,0,0,0.05,20,0)" xlink:href="#T"/><use transform="matrix(0.05,0,0,0.05,25,0)" xlink:href="#I"/></g><g id="r"><use transform="matrix(0.05,0,0,0.05,0,0)" xlink:href="#T"/><use transform="matrix(0.05,0,0,0.05,5,0)" xlink:href="#P"/><use transform="matrix(0.05,0,0,0.05,8.95,0)" xlink:href="#N"/><use transform="matrix(0.05,0,0,0.05,23.9,0)" xlink:href="#I"/></g><g id="s"><use transform="matrix(0.05,0,0,0.05,0,0)" xlink:href="#H"/><use transform="matrix(0.05,0,0,0.05,9,0)" xlink:href="#T"/><use transform="matrix(0.05,0,0,0.05,14,0)" xlink:href="#O"/><use transform="matrix(0.05,0,0,0.05,24,0)" xlink:href="#T"/><use transform="matrix(0.05,0,0,0.05,29,0)" xlink:href="#Y"/><use transform="matrix(0.05,0,0,0.05,39,0)" xlink:href="#H"/></g><path fill="#3a414a" d="M179-190L93 31C79 59 56 82 12 73V49c39 6 53-20 64-50L1-190h34L92-34l54-156h33" id="ah"/><g id="t"><use transform="matrix(0.05,0,0,0.05,0,0)" xlink:href="#T"/><use transform="matrix(0.05,0,0,0.05,5,0)" xlink:href="#ah"/><use transform="matrix(0.05,0,0,0.05,14,0)" xlink:href="#S"/><use transform="matrix(0.05,0,0,0.05,24,0)" xlink:href="#I"/></g><path fill="#3a414a" d="M135-194c53 0 70 44 70 98 0 56-19 98-73 100-31 1-45-17-59-34 3 33 2 69 2 105H25l-1-265h48c2 10 0 23 3 31 11-24 29-35 60-35zM114-30c33 0 39-31 40-66 0-38-9-64-40-64-56 0-55 130 0 130" id="ai"/><path fill="#3a414a" d="M110-194c64 0 96 36 96 99 0 64-35 99-97 99-61 0-95-36-95-99 0-62 34-99 96-99zm-1 164c35 0 45-28 45-65 0-40-10-65-43-65-34 0-45 26-45 65 0 36 10 65 43 65" id="aj"/><path fill="#3a414a" d="M135-194c87-1 58 113 63 194h-50c-7-57 23-157-34-157-59 0-34 97-39 157H25l-1-190h47c2 12-1 28 3 38 12-26 28-41 61-42" id="ak"/><g id="u"><use transform="matrix(0.05,0,0,0.05,0,0)" xlink:href="#A"/><use transform="matrix(0.05,0,0,0.05,7,0)" xlink:href="#z"/><use transform="matrix(0.05,0,0,0.05,17,0)" xlink:href="#y"/><use transform="matrix(0.05,0,0,0.05,27,0)" xlink:href="#ai"/><use transform="matrix(0.05,0,0,0.05,37.95,0)" xlink:href="#aj"/><use transform="matrix(0.05,0,0,0.05,48.900000000000006,0)" xlink:href="#ak"/><use transform="matrix(0.05,0,0,0.05,59.85,0)" xlink:href="#y"/><use transform="matrix(0.05,0,0,0.05,69.85000000000001,0)" xlink:href="#z"/><use transform="matrix(0.05,0,0,0.05,79.85000000000001,0)" xlink:href="#y"/></g><g id="v"><use transform="matrix(0.05,0,0,0.05,0,0)" xlink:href="#S"/><use transform="matrix(0.05,0,0,0.05,10,0)" xlink:href="#O"/><use transform="matrix(0.05,0,0,0.05,20,0)" xlink:href="#L"/><use transform="matrix(0.05,0,0,0.05,25.950000000000003,0)" xlink:href="#I"/><use transform="matrix(0.05,0,0,0.05,35.95,0)" xlink:href="#J"/><use transform="matrix(0.05,0,0,0.05,45.95,0)" xlink:href="#T"/><use transform="matrix(0.05,0,0,0.05,50.95,0)" xlink:href="#M"/><use transform="matrix(0.05,0,0,0.05,60.95,0)" xlink:href="#P"/><use transform="matrix(0.05,0,0,0.05,64.9,0)" xlink:href="#K"/></g><g id="w"><use transform="matrix(0.05,0,0,0.05,0,0)" xlink:href="#L"/><use transform="matrix(0.05,0,0,0.05,5.95,0)" xlink:href="#I"/><use transform="matrix(0.05,0,0,0.05,15.949999999999998,0)" xlink:href="#H"/><use transform="matrix(0.05,0,0,0.05,24.95,0)" xlink:href="#S"/><use transform="matrix(0.05,0,0,0.05,34.95,0)" xlink:href="#Z"/><use transform="matrix(0.05,0,0,0.05,44.95,0)" xlink:href="#J"/><use transform="matrix(0.05,0,0,0.05,54.95,0)" xlink:href="#H"/><use transform="matrix(0.05,0,0,0.05,63.95,0)" xlink:href="#I"/><use transform="matrix(0.05,0,0,0.05,73.95,0)" xlink:href="#M"/><use transform="matrix(0.05,0,0,0.05,83.95,0)" xlink:href="#P"/><use transform="matrix(0.05,0,0,0.05,87.9,0)" xlink:href="#K"/></g></defs></g></svg>